<svg xmlns="http://www.w3.org/2000/svg" viewBox="0 0 660.27 207.95"><defs><style>.cls-1{fill:url(#Dégradé_sans_nom_41);}.cls-2{fill:#47004f;}</style><linearGradient id="Dégradé_sans_nom_41" x1="91.41" y1="-163.82" x2="91.41" y2="213.77" gradientUnits="userSpaceOnUse"><stop offset="0" stop-color="#fedefe"/><stop offset=".18" stop-color="#fa80fd"/><stop offset=".27" stop-color="#e645f1"/><stop offset=".42" stop-color="#d230f3"/><stop offset=".67" stop-color="#78139a"/><stop offset=".78" stop-color="#650d7a"/><stop offset="1" stop-color="#3d0c35"/></linearGradient></defs><title>Fichier 1</title><g id="Calque_2" data-name="Calque 2"><g id="Calque_1-2" data-name="Calque 1"><path class="cls-1" d="M182.82 104a36.38 36.38 0 0 0-11.29-26.4v-1.72a36.51 36.51 0 0 0-11.47-26.54 36.69 36.69 0 0 0-12.68-23.84A36.65 36.65 0 0 0 112.59 0a36.26 36.26 0 0 0-20.23 6.26l-.42.28-.53.35-.53-.35-.42-.28A36.26 36.26 0 0 0 70.23 0a36.65 36.65 0 0 0-34.79 25.5 36.69 36.69 0 0 0-12.72 23.81 36.51 36.51 0 0 0-11.47 26.55v1.72A36.46 36.46 0 0 0 2.83 118a36.42 36.42 0 0 0 8.64 40.61A36.76 36.76 0 0 0 38.8 190a36.24 36.24 0 0 0 51.66 11.71l.42-.28.53-.35.53.35.42.28A36.24 36.24 0 0 0 144 190a36.76 36.76 0 0 0 27.33-31.34A36.42 36.42 0 0 0 180 118a36.73 36.73 0 0 0 2.82-14zM70.23 5.49a30.82 30.82 0 0 1 12.9 2.84l-11 11a4.14 4.14 0 0 0-5.88 2.17L53.67 10.33a30.9 30.9 0 0 1 16.56-4.84zM57.09 69.34a3.85 3.85 0 0 0-1 1.48l-19.86-8.33a4.18 4.18 0 0 0-1.89-3.65l8.83-14a4.18 4.18 0 0 0 2.92.33zm-9.73-24.76a4.08 4.08 0 0 0 1.85-3.05l18 2.54.18.15-5.66 24.26a4.18 4.18 0 0 0-3.53.06zm-11.72 20a4.2 4.2 0 0 0 .33-.7l19.89 8.33a4.18 4.18 0 0 0 .21 1.46l-18.85 3.54a4.13 4.13 0 0 0-4.12-1.57l-.25-9.18a4.18 4.18 0 0 0 2.79-1.92zm-2.78 19.23a4.17 4.17 0 0 0 5-5.38l18.85-3.58a4 4 0 0 0 2 1.43L50.22 101a4.17 4.17 0 0 0-3.85 2.56l-16.73-1.21a4.15 4.15 0 0 0-2.84-4.66zm-3.77 20c0-.07.06-.14.1-.21l16.88 1.25a4 4 0 0 0 1.62 3.62l-15.94 25.46a3.85 3.85 0 0 0-2.21.2l-3.66-28.31a4.18 4.18 0 0 0 3.2-1.98zm19.81 5.31A4 4 0 0 0 52 109l10 21.53a4 4 0 0 0-.51 3.76L34.66 136a4.18 4.18 0 0 0-1.61-1.62zm5.46-4.77a4.17 4.17 0 0 0-.34-1l18.38-9.6A4.34 4.34 0 0 0 74 94.8l-8.28 33.93a4.19 4.19 0 0 0-2.69.79l-9.93-21.28a4.19 4.19 0 0 0 1.26-3.87zm-19.23 33l27.08-1.79a4.18 4.18 0 0 0 .94.85l-15.53 26.22a4.17 4.17 0 0 0-2.32-.21l-.19.06-11.84-20.89a4.19 4.19 0 0 0 1.86-4.26zm29.29-.35a4.16 4.16 0 0 0 1.68.09l5.57 22.59a4.18 4.18 0 0 0-2.94 4.7l-18.5 1.5v-.12a4.16 4.16 0 0 0-1.43-2.39zm-14.19 30.22l19-1.54a4.22 4.22 0 0 0 2.52 2l-5.9 16.43a3.74 3.74 0 0 0-2.27.81l-14-16a4.22 4.22 0 0 0 .65-1.7zm17.2-30.59a4.18 4.18 0 0 0 2-2.29l19.11 5.36-13.41 20.43a4.18 4.18 0 0 0-2.09-.67zm-.38-7.6l8.29-34h.2a4.31 4.31 0 0 0 1.37-.24l12.4 23.85-20.57 11.67a4.16 4.16 0 0 0-1.69-1.31zm8.34-42.63a4.31 4.31 0 0 0-3.77 6.21l-18.38 9.63a4.2 4.2 0 0 0-1.67-1l8.49-24.74a4.17 4.17 0 0 0 4-5.26L75.21 67a4.1 4.1 0 0 0 2.36 1.84zm-.77-21.53a4.14 4.14 0 0 0 .08.81L63.53 70a4.14 4.14 0 0 0-.64-.77L68.58 45a4.34 4.34 0 0 0 1.69.34h.33c.08.15.18.31.38.22l5.73 15.82a4.1 4.1 0 0 0-2.09 3.5zm-34.15-37a30.91 30.91 0 0 1 11.87-16.62L66 22.94a4.15 4.15 0 0 0 3.48 4.27l.52 9.42a4.32 4.32 0 0 0-3.74 6.1l-17.12-2.58a4.14 4.14 0 0 0-4.9-3.15H44a3.21 3.21 0 0 0-.46.16q-1.19-3.16-3.23-8.77zm-13.3 24.81L28 52l.09-1.1a31.14 31.14 0 0 1 8.67-19c.06-.06 1.39-1.36 2-1.87l.53-.45c1.08 3 2.21 6.16 3 8.48a4.08 4.08 0 0 0-.81.93A4.19 4.19 0 0 0 42 44l-9 14.31a4.11 4.11 0 0 0-5.07 3l-7.22-.7a31 31 0 0 1 6.46-7.93zm-7.09 9.21l7.78.75a4.18 4.18 0 0 0 3.61 3.88l.27 9.64A4.16 4.16 0 0 0 30 78.22l-13.13.32v-.07c-.07-.83-.11-1.7-.11-2.61a30.93 30.93 0 0 1 3.32-13.97zm-4.15 18.88l1-.86 12.77-.31a4.18 4.18 0 0 0 1.9 3.67l-6.21 14.19a4.19 4.19 0 0 0-3.48 2 4.15 4.15 0 0 0-.46 1.13C17.29 100 10.37 98.93 6 98.48a30.75 30.75 0 0 1 9.93-17.71zM5.78 99.84c3.86.41 10.28 1.32 15.53 2.13a4.09 4.09 0 0 0 3.13 3.73L28.1 134 8.58 117.44l-.26-.56a30.68 30.68 0 0 1-2.54-17zm-.29 32.26a31.3 31.3 0 0 1 2.83-12.92l.05-.11 19.34 16.4a4.17 4.17 0 0 0-.89 2.21L7 141.56a30.86 30.86 0 0 1-1.51-9.46zm10.43 23.17a31.09 31.09 0 0 1-8.46-12.37l19.47-3.9a4.19 4.19 0 0 0 4.88 3.14l.19-.06L43.84 163a4.19 4.19 0 0 0-1.71 2.23L16.71 156zm1 2.27l25 9.2a3.81 3.81 0 0 0 1 2.56l-13.39 10.32a31.16 31.16 0 0 1-12.63-22.08zm24.29 27.35a30.61 30.61 0 0 1-10.43-4.44l13.32-10.26a4.1 4.1 0 0 0 4.52-.29l14 16a4.22 4.22 0 0 0-.66 1.58l-19.56-2.33zm29.05 17.56a30.92 30.92 0 0 1-27-15.82l18.66 2.22v.24a4.2 4.2 0 0 0 4.21 3.38l5.28 9.93c-.41.02-.78.05-1.18.05zm19.39-6.86a31 31 0 0 1-16.84 6.75l-5.32-10.13a4.2 4.2 0 0 0 2.76-3.94l19.39-4.78zm0-13.52L70 186.91a4.2 4.2 0 0 0-2.82-2.66l5.9-16.43a4 4 0 0 0 3.92-3.7l12.6 4.35zm0-15L77 162.75a4.16 4.16 0 0 0-.81-1.68l13.47-20.52zm0-29.26l-20-5a4.18 4.18 0 0 0-.25-1.35l20.21-11.4zm0-21.5L78.13 94.22a4.31 4.31 0 0 0 .93-6l10.57-10.58zm0-40.64L78.09 87.24a4.32 4.32 0 0 0-1.33-.65L78.93 69a4.1 4.1 0 0 0 3.88-3.59l6.82-.3zm0-12l-6.86.3A4.07 4.07 0 0 0 78 60.83l-5.8-16a4.34 4.34 0 0 0 1.93-1.92l15.49 5.27zm0-17.18l-15.07-5a4.29 4.29 0 0 0 .06-.59 4.34 4.34 0 0 0-3.21-4.18l-.57-9.57a4.17 4.17 0 0 0 2.4-7L84.36 9a31.1 31.1 0 0 1 5.27 3.4zm87.21 51.95c-4.38.44-11.3 1.47-15.46 2.12a4.15 4.15 0 0 0-.46-1.13 4.19 4.19 0 0 0-3.48-2l-6.21-14.19a4.18 4.18 0 0 0 1.9-3.67l12.79.31 1 .86a30.75 30.75 0 0 1 9.89 17.74zm-23.65 3.85l-16.73 1.21a4.17 4.17 0 0 0-3.88-2.5l-8.48-24.7a4 4 0 0 0 2-1.43L145 78.43a4.17 4.17 0 0 0 5 5.38l6 13.86a4.15 4.15 0 0 0-2.84 4.66zm-3.47-26.68a4.13 4.13 0 0 0-4.12 1.57l-18.85-3.58a4.18 4.18 0 0 0 .21-1.46l19.89-8.33a4.11 4.11 0 0 0 3.13 2.66zm-3.13-13.15l-19.91 8.36a3.85 3.85 0 0 0-1-1.48l11-24.19a4.18 4.18 0 0 0 2.92-.33l8.83 14a4.18 4.18 0 0 0-1.86 3.67zm-22 6a4.18 4.18 0 0 0-3.53-.06l-5.68-24.27.18-.15 18-2.54a4.08 4.08 0 0 0 1.85 3.05zm-4.69.68a4.14 4.14 0 0 0-.64.77l-11.18-4.29a4.08 4.08 0 0 0-2-4.38l5.73-15.82c.2.1.3-.06.38-.22h.33a4.34 4.34 0 0 0 1.69-.34zM107.61 67l11.12 4.27a4.17 4.17 0 0 0 4 5.26l8.48 24.72a4.2 4.2 0 0 0-1.67 1l-18.34-9.63a4.31 4.31 0 0 0-3.77-6.21l-2.17-17.6a4.1 4.1 0 0 0 2.35-1.81zm22.11 41.27l-9.92 21.29a4.19 4.19 0 0 0-2.69-.79l-8.28-33.97a4.34 4.34 0 0 0 1.59-1.05l18.38 9.63a4.1 4.1 0 0 0 .92 4.86zm-22.24-13.19l8.29 34a4.16 4.16 0 0 0-1.69 1.27l-20.55-11.64 12.4-23.85a4.31 4.31 0 0 0 1.37.24zm7.91 41.56l-5.6 22.83a4.18 4.18 0 0 0-2.09.67l-13.41-20.43 19.11-5.36a4.18 4.18 0 0 0 1.99 2.28zm17.21 29.09v.12l-18.5-1.5a4.18 4.18 0 0 0-2.94-4.7l5.57-22.59a4.16 4.16 0 0 0 1.68-.09L134 163.33a4.16 4.16 0 0 0-1.4 2.4zm.67 3.2l-14 16a3.74 3.74 0 0 0-2.27-.81l-5.9-16.43a4.22 4.22 0 0 0 2.52-2l19 1.54a4.22 4.22 0 0 0 .65 1.7zm-13.6-32.53a4.18 4.18 0 0 0 .94-.85l27.08 1.79a4.19 4.19 0 0 0 1.86 4.25l-11.83 20.89-.19-.06a4.17 4.17 0 0 0-2.32.21zm28.5-.36l-26.87-1.74a4 4 0 0 0-.51-3.76L130.86 109a4 4 0 0 0 3.07.14l15.85 25.27a4.18 4.18 0 0 0-1.62 1.59zm-13-27.54a4 4 0 0 0 1.62-3.62l16.88-1.25c0 .07.06.14.1.21a4.18 4.18 0 0 0 3.21 2l-3.66 28.31a3.85 3.85 0 0 0-2.21-.2zm30.94-32.64c0 .9 0 1.78-.11 2.61v.07l-13.13-.32a4.16 4.16 0 0 0-1.76-2.06l.27-9.64a4.18 4.18 0 0 0 3.62-3.88l7.78-.75a30.93 30.93 0 0 1 3.3 13.97zm-22-45.91c.57.51 1.9 1.81 2 1.87a31.14 31.14 0 0 1 8.67 19l.09 1.1.82.73a31.05 31.05 0 0 1 6.38 7.9l-7.22.7a4.11 4.11 0 0 0-5.07-3l-9-14.31a4.19 4.19 0 0 0 .58-5.09 4.08 4.08 0 0 0-.81-.93c.81-2.32 1.93-5.46 3-8.48zm-1.75-2.09l.16.54q-2 5.63-3.14 8.82a3.22 3.22 0 0 0-.46-.16h-.28a4.14 4.14 0 0 0-4.89 3.17l-17.17 2.58a4.32 4.32 0 0 0-3.74-6.1l.58-9.42a4.15 4.15 0 0 0 3.48-4.27l13.65-11.69a30.91 30.91 0 0 1 11.8 16.52zM112.59 5.49a30.91 30.91 0 0 1 16.56 4.83l-12.59 11.24a4.14 4.14 0 0 0-5.88-2.17l-11-11a30.82 30.82 0 0 1 12.91-2.9zM93.2 12.35A31.09 31.09 0 0 1 98.47 9l11.11 11.28a4.17 4.17 0 0 0 2.4 7l-.57 9.57A4.34 4.34 0 0 0 108.2 41a4.29 4.29 0 0 0 .06.59l-15.07 5zm0 35.83l15.49-5.27a4.34 4.34 0 0 0 1.93 1.92l-5.8 16a4.07 4.07 0 0 0-4.76 3.17l-6.86-.3zm0 16.91l6.82.3A4.1 4.1 0 0 0 103.9 69l2.17 17.61a4.32 4.32 0 0 0-1.33.65L93.2 75.7zm0 12.55l10.57 10.57a4.31 4.31 0 0 0 .93 6l-11.5 22.12zm0 42.46l20.21 11.4a4.18 4.18 0 0 0-.25 1.35l-20 5zm0 20.45l13.47 20.52a4.16 4.16 0 0 0-.81 1.68l-12.66 4.34zm0 27.92l12.6-4.35a4 4 0 0 0 3.94 3.71l5.9 16.43a4.2 4.2 0 0 0-2.82 2.66l-19.62-4.85zm0 27.13v-12.1l19.39 4.78a4.2 4.2 0 0 0 2.76 3.94L110 202.34a31 31 0 0 1-16.8-6.75zm19.39 6.86c-.39 0-.78 0-1.17-.05l5.28-9.93a4.2 4.2 0 0 0 4.21-3.38v-.24l18.66-2.22a30.92 30.92 0 0 1-26.98 15.81zm29.05-17.56l-1.18.26-19.56 2.33a4.22 4.22 0 0 0-.66-1.58l14-16a4.1 4.1 0 0 0 4.52.29l13.32 10.26a30.61 30.61 0 0 1-10.44 4.43zm11.65-5.27l-13.42-10.33a3.81 3.81 0 0 0 1-2.56l25-9.2a31.16 31.16 0 0 1-12.58 22.08zm13.61-24.35l-.78.7-25.42 9.28A4.19 4.19 0 0 0 139 163l11.83-20.89.19.06a4.19 4.19 0 0 0 4.88-3.17l19.47 3.86a31.09 31.09 0 0 1-8.47 12.41zm8.94-13.71l-19.84-3.9a4.18 4.18 0 0 0-.89-2.21l19.34-16.4.05.11a31.3 31.3 0 0 1 2.83 12.92 30.85 30.85 0 0 1-1.49 9.47zm-1.34-24.67l-.26.56L154.73 134l3.66-28.29a4.09 4.09 0 0 0 3.13-3.73c5.26-.81 11.67-1.72 15.53-2.13a30.67 30.67 0 0 1-2.54 17z"/><path class="cls-2" d="M323.52 69.84l-26.32 37.53-25.77-37 .59-.52h-3.35l.18.26-47.09 41.29V69.84h-1.92v68.36h1.92V114l15.7-13.88 33.89 38.1h2.58L239 98.95l31-27.28 26.29 37.71v28.82h1.92v-28.82l27.67-39.54zm57.92 52.08a28.2 28.2 0 0 1-5.74 8.43 25.56 25.56 0 0 1-8.43 5.55 28.7 28.7 0 0 1-11 2 26.56 26.56 0 0 1-12.3-2.78 28.28 28.28 0 0 1-9.14-7.37 32 32 0 0 1-5.65-10.62 41.13 41.13 0 0 1-1.92-12.54 45.05 45.05 0 0 1 1.58-11.39A35.12 35.12 0 0 1 334 82a28.94 28.94 0 0 1 9.33-8.52 30.69 30.69 0 0 1 24.27-1.58 26.52 26.52 0 0 1 7.85 4.64 22.74 22.74 0 0 1 5.22 6.46 18.48 18.48 0 0 1 2.2 7.32h1.91a18.6 18.6 0 0 0-1.82-7 24.49 24.49 0 0 0-5.12-7.23 27.75 27.75 0 0 0-8.47-5.65 29.08 29.08 0 0 0-11.87-2.25 30.52 30.52 0 0 0-14.84 3.35 29.74 29.74 0 0 0-10 8.61 35.88 35.88 0 0 0-5.6 11.73 47.84 47.84 0 0 0-1.77 12.68 41.81 41.81 0 0 0 2.3 14.12 33.81 33.81 0 0 0 6.36 11.1 29 29 0 0 0 9.76 7.28 29.46 29.46 0 0 0 12.49 2.63 30.76 30.76 0 0 0 11.68-2.1 27.23 27.23 0 0 0 9-5.84 30 30 0 0 0 6.18-9 40.71 40.71 0 0 0 3.25-11.44h-1.91a37.81 37.81 0 0 1-2.96 10.61zm84-14.6a16.16 16.16 0 0 0-5.27-3.35 18.56 18.56 0 0 0-6.36-1.29v-.19a15 15 0 0 0 10.34-4.88 15.89 15.89 0 0 0 3-4.88 15.7 15.7 0 0 0 1.1-5.84 17.47 17.47 0 0 0-1.48-7.47 15.08 15.08 0 0 0-4.12-5.31 17.56 17.56 0 0 0-6.13-3.21 26 26 0 0 0-7.52-1.06h-29.37v68.36h28.24a32.55 32.55 0 0 0 9-1.2 21 21 0 0 0 7.13-3.49 15.89 15.89 0 0 0 4.64-5.79 18.52 18.52 0 0 0 1.68-8.09 17.67 17.67 0 0 0-1.34-7 15.93 15.93 0 0 0-3.54-5.31zm-43.89-35.56H449a24.54 24.54 0 0 1 6.8.91 15.77 15.77 0 0 1 5.5 2.78 13 13 0 0 1 3.7 4.68 15.61 15.61 0 0 1 1.34 6.75 13.76 13.76 0 0 1-1.44 6.42 13.92 13.92 0 0 1-3.83 4.64 16.28 16.28 0 0 1-5.5 2.78 23.21 23.21 0 0 1-6.56.91h-27.46zM466.92 127a14.67 14.67 0 0 1-4.17 5.17 17.68 17.68 0 0 1-6.22 3.06 28.84 28.84 0 0 1-7.8 1h-27.18v-32.69H449a29.61 29.61 0 0 1 7.13.86 18.38 18.38 0 0 1 6.22 2.78 14.47 14.47 0 0 1 4.4 5 15.6 15.6 0 0 1 1.67 7.56 16.39 16.39 0 0 1-1.5 7.26zm60.93 5q-.19-2.1-.29-4.26t-.1-3.59a50.77 50.77 0 0 0-.48-7.37 15.16 15.16 0 0 0-1.91-5.65 10.75 10.75 0 0 0-4.12-3.88 19.88 19.88 0 0 0-7-2.06V105q7.18-1.63 11-6.18a16.41 16.41 0 0 0 3.64-11.44q-.19-9-5.17-13.26t-15.7-4.26h-28v68.34h1.92v-32.08h25.75a30.47 30.47 0 0 1 9.48 1.2 12 12 0 0 1 5.46 3.45 11.76 11.76 0 0 1 2.54 5.55 40.76 40.76 0 0 1 .62 7.51v3.69s.09 2.73.19 4.07.24 2.6.43 3.78a11.45 11.45 0 0 0 .77 2.82h2.11a6.08 6.08 0 0 1-.77-2.39q-.22-1.72-.37-3.8zm-20.58-27.76h-25.56V71.76h26.52q9.76 0 14.07 4.07t4.4 11.35a16.86 16.86 0 0 1-1.63 7.7 15.74 15.74 0 0 1-4.31 5.32 17.3 17.3 0 0 1-6.18 3.06 27.57 27.57 0 0 1-7.31.95zm53.46-34.37l-27.67 68.33h2.1l9.09-22.5h34.85l9 22.5h2.1l-27-68.35zM545 113.78l16.85-42h.19l16.27 42zm50.3 24.41h1.92V69.84h-1.92zm63-68.35v66h-.19l-46.72-66h-2.87v68.36h1.92v-66h.19l46.72 66h2.87V69.84z"/></g></g></svg>